<?xml version="1.0" standalone="no"?>
<svg viewBox="0 0 200 200" xmlns="http://www.w3.org/2000/svg">
  <path fill="#005C7D" d="M42.2,-73.4C51.2,-67.8,52.7,-49.5,59.6,-35.2C66.5,-20.9,78.9,-10.4,84.2,3C89.4,16.5,87.5,33,79.9,46C72.2,59.1,58.8,68.8,44.5,73C30.2,77.2,15.1,76,-0.5,76.9C-16.2,77.8,-32.3,80.9,-45.6,76.1C-58.9,71.4,-69.4,58.7,-77.4,44.7C-85.4,30.7,-90.9,15.4,-91.9,-0.6C-92.9,-16.5,-89.4,-33.1,-80.1,-44.8C-70.8,-56.6,-55.8,-63.5,-41.5,-66.1C-27.1,-68.6,-13.6,-66.8,1.5,-69.4C16.6,-72,33.1,-79,42.2,-73.4Z" transform="translate(100 100)" />
</svg>
