<?xml version="1.0" standalone="no"?><svg xmlns="http://www.w3.org/2000/svg" viewBox="0 0 1440 320"><path fill="#FE9A84" fill-opacity="1" d="M0,192L30,208C60,224,120,256,180,229.3C240,203,300,117,360,122.7C420,128,480,224,540,240C600,256,660,192,720,176C780,160,840,192,900,208C960,224,1020,224,1080,224C1140,224,1200,224,1260,218.7C1320,213,1380,203,1410,197.3L1440,192L1440,0L1410,0C1380,0,1320,0,1260,0C1200,0,1140,0,1080,0C1020,0,960,0,900,0C840,0,780,0,720,0C660,0,600,0,540,0C480,0,420,0,360,0C300,0,240,0,180,0C120,0,60,0,30,0L0,0Z"></path></svg>